<svg width="96" height="96" viewBox="0 0 96 96" fill="none" xmlns="http://www.w3.org/2000/svg">
<path d="M73.2 22.8399C72.83 22.4691 72.3904 22.1749 71.9065 21.9742C71.4226 21.7735 70.9039 21.6701 70.38 21.6701C69.8562 21.6701 69.3374 21.7735 68.8535 21.9742C68.3696 22.1749 67.9301 22.4691 67.56 22.8399L48 42.3599L28.44 22.7999C28.0697 22.4296 27.6301 22.1358 27.1462 21.9354C26.6624 21.735 26.1438 21.6318 25.62 21.6318C25.0963 21.6318 24.5777 21.735 24.0939 21.9354C23.61 22.1358 23.1704 22.4296 22.8 22.7999C22.4297 23.1702 22.136 23.6099 21.9355 24.0937C21.7351 24.5776 21.632 25.0962 21.632 25.6199C21.632 26.1436 21.7351 26.6622 21.9355 27.1461C22.136 27.6299 22.4297 28.0696 22.8 28.4399L42.36 47.9999L22.8 67.5599C22.4297 67.9302 22.136 68.3699 21.9355 68.8537C21.7351 69.3376 21.632 69.8562 21.632 70.3799C21.632 70.9036 21.7351 71.4222 21.9355 71.9061C22.136 72.3899 22.4297 72.8296 22.8 73.1999C23.1704 73.5702 23.61 73.864 24.0939 74.0644C24.5777 74.2648 25.0963 74.368 25.62 74.368C26.1438 74.368 26.6624 74.2648 27.1462 74.0644C27.6301 73.864 28.0697 73.5702 28.44 73.1999L48 53.6399L67.56 73.1999C67.9304 73.5702 68.37 73.864 68.8539 74.0644C69.3377 74.2648 69.8563 74.368 70.38 74.368C70.9038 74.368 71.4224 74.2648 71.9062 74.0644C72.3901 73.864 72.8297 73.5702 73.2 73.1999C73.5704 72.8296 73.8641 72.3899 74.0645 71.9061C74.265 71.4222 74.3681 70.9036 74.3681 70.3799C74.3681 69.8562 74.265 69.3376 74.0645 68.8537C73.8641 68.3699 73.5704 67.9302 73.2 67.5599L53.64 47.9999L73.2 28.4399C74.72 26.9199 74.72 24.3599 73.2 22.8399Z" fill="#FCFCFC"/>
</svg>
