<svg width="438" height="38" viewBox="0 0 438 38" fill="none" xmlns="http://www.w3.org/2000/svg">
<path d="M26.6957 14.248C26.6957 12.52 26.4557 11.096 25.9757 9.976C25.4957 8.824 24.8077 7.976 23.9117 7.432C23.0477 6.856 22.0077 6.584 20.7917 6.616H18.4877V29.128C18.4877 29.992 18.4717 30.824 18.4397 31.624C18.4077 32.424 18.3597 33.032 18.2957 33.448C18.8397 33.384 19.5277 33.352 20.3597 33.352C21.2237 33.32 21.8157 33.304 22.1357 33.304V37H8.11969V33.832C8.85569 33.8 9.46369 33.704 9.94369 33.544C10.4557 33.384 10.8397 33.016 11.0957 32.44C11.3837 31.864 11.5277 30.936 11.5277 29.656V6.664H9.31969C7.49569 6.696 6.05569 7.32 4.99969 8.536C3.94369 9.752 3.41569 11.656 3.41569 14.248H0.247691L0.487691 3.4H29.5757L29.8637 14.248H26.6957ZM46.8636 37C46.7996 36.552 46.7516 36.184 46.7196 35.896C46.7196 35.576 46.7036 35.208 46.6716 34.792C45.5836 35.88 44.4316 36.648 43.2156 37.096C41.9996 37.544 40.7676 37.768 39.5196 37.768C37.4716 37.768 35.8716 37.16 34.7196 35.944C33.5676 34.728 32.9916 33.208 32.9916 31.384C32.9916 29.848 33.3756 28.536 34.1436 27.448C34.9436 26.36 35.9836 25.48 37.2636 24.808C38.5756 24.104 40.0156 23.576 41.5836 23.224C43.1836 22.84 44.7836 22.616 46.3836 22.552V20.056C46.3836 19.224 46.2716 18.472 46.0476 17.8C45.8556 17.128 45.5036 16.6 44.9916 16.216C44.5116 15.832 43.8236 15.656 42.9276 15.688C42.3196 15.72 41.7276 15.848 41.1516 16.072C40.5756 16.296 40.0796 16.616 39.6636 17.032C39.9196 17.32 40.0796 17.64 40.1436 17.992C40.2076 18.312 40.2396 18.6 40.2396 18.856C40.2396 19.496 39.9836 20.168 39.4716 20.872C38.9596 21.544 38.1436 21.864 37.0236 21.832C36.0636 21.8 35.3276 21.464 34.8156 20.824C34.3036 20.184 34.0476 19.432 34.0476 18.568C34.0476 17.288 34.4956 16.184 35.3916 15.256C36.3196 14.296 37.5516 13.56 39.0876 13.048C40.6236 12.504 42.3196 12.232 44.1756 12.232C46.9916 12.232 49.1676 12.968 50.7036 14.44C52.2716 15.88 53.0556 18.2 53.0556 21.4C53.0556 22.488 53.0556 23.416 53.0556 24.184C53.0556 24.952 53.0396 25.72 53.0076 26.488C53.0076 27.256 53.0076 28.184 53.0076 29.272C53.0076 29.72 52.9916 30.36 52.9596 31.192C52.9276 31.992 52.8796 32.76 52.8156 33.496C53.3596 33.432 53.9356 33.4 54.5436 33.4C55.1516 33.368 55.6156 33.352 55.9356 33.352V37H46.8636ZM46.3356 25.96C45.4396 26.056 44.5916 26.216 43.7916 26.44C42.9916 26.664 42.2876 26.968 41.6796 27.352C41.1036 27.736 40.6396 28.2 40.2876 28.744C39.9676 29.288 39.8076 29.896 39.8076 30.568C39.8396 31.464 40.1276 32.104 40.6716 32.488C41.2156 32.872 41.8396 33.064 42.5436 33.064C43.2796 33.064 43.9676 32.904 44.6076 32.584C45.2476 32.264 45.8236 31.848 46.3356 31.336C46.3356 31.016 46.3356 30.712 46.3356 30.424C46.3356 30.104 46.3356 29.784 46.3356 29.464C46.3356 28.888 46.3356 28.312 46.3356 27.736C46.3356 27.128 46.3356 26.536 46.3356 25.96ZM62.1474 9.88C62.1474 9.304 62.1474 8.648 62.1474 7.912C62.1794 7.144 62.2274 6.408 62.2914 5.704C61.7794 5.736 61.1714 5.768 60.4674 5.8C59.7954 5.8 59.2834 5.816 58.9314 5.848V2.2C60.4354 2.2 61.6834 2.12 62.6754 1.96C63.6994 1.8 64.4994 1.608 65.0754 1.384C65.6834 1.16 66.0994 0.951999 66.3234 0.759997H68.9154V14.824C70.0034 13.864 71.1074 13.192 72.2274 12.808C73.3474 12.424 74.4034 12.232 75.3954 12.232C77.3154 12.232 78.9954 12.728 80.4354 13.72C81.9074 14.712 83.0434 16.12 83.8434 17.944C84.6754 19.768 85.0914 21.912 85.0914 24.376C85.0914 26.936 84.6114 29.24 83.6514 31.288C82.7234 33.304 81.3954 34.888 79.6674 36.04C77.9394 37.192 75.8594 37.768 73.4274 37.768C72.5634 37.768 71.4594 37.576 70.1154 37.192C68.8034 36.84 67.5874 36.072 66.4674 34.888L65.0274 37H62.1474V9.88ZM68.9154 29.8C68.9154 30.888 69.0914 31.752 69.4434 32.392C69.7954 33.032 70.2434 33.496 70.7874 33.784C71.3314 34.072 71.8754 34.232 72.4194 34.264C73.8594 34.296 74.9794 33.88 75.7794 33.016C76.6114 32.152 77.1874 31.016 77.5074 29.608C77.8594 28.168 78.0354 26.664 78.0354 25.096C78.0354 23.624 77.8594 22.232 77.5074 20.92C77.1554 19.608 76.5954 18.552 75.8274 17.752C75.0594 16.92 74.0514 16.52 72.8034 16.552C72.0034 16.584 71.2674 16.792 70.5954 17.176C69.9234 17.528 69.3634 18.008 68.9154 18.616V29.8ZM90.0516 33.88C90.9476 33.88 91.5876 33.704 91.9716 33.352C92.3876 33 92.6436 32.504 92.7396 31.864C92.8356 31.192 92.8836 30.44 92.8836 29.608V9.88C92.8836 9.304 92.8996 8.648 92.9316 7.912C92.9636 7.144 93.0116 6.408 93.0756 5.704C92.5636 5.736 91.9556 5.768 91.2516 5.8C90.5796 5.8 90.0676 5.816 89.7156 5.848V2.2C91.2196 2.2 92.4676 2.12 93.4596 1.96C94.4836 1.8 95.2836 1.608 95.8596 1.384C96.4676 1.16 96.8836 0.951999 97.1076 0.759997H99.6996V29.272C99.6996 29.72 99.6836 30.36 99.6516 31.192C99.6196 31.992 99.5716 32.76 99.5076 33.496C100.052 33.432 100.628 33.4 101.236 33.4C101.844 33.368 102.308 33.352 102.628 33.352V37H90.0516V33.88ZM119.549 37.768C117.213 37.768 115.149 37.256 113.357 36.232C111.565 35.176 110.173 33.704 109.181 31.816C108.189 29.896 107.693 27.64 107.693 25.048C107.693 22.808 108.189 20.712 109.181 18.76C110.173 16.808 111.565 15.24 113.357 14.056C115.181 12.84 117.293 12.232 119.693 12.232C121.037 12.232 122.349 12.424 123.629 12.808C124.909 13.16 126.061 13.784 127.085 14.68C128.141 15.576 128.973 16.792 129.581 18.328C130.221 19.864 130.525 21.784 130.493 24.088L114.749 24.376C114.749 26.104 114.957 27.656 115.373 29.032C115.821 30.408 116.541 31.496 117.533 32.296C118.525 33.096 119.853 33.496 121.517 33.496C122.157 33.496 122.877 33.384 123.677 33.16C124.509 32.936 125.341 32.568 126.173 32.056C127.037 31.512 127.837 30.792 128.573 29.896L130.733 31.912C129.581 33.544 128.349 34.792 127.037 35.656C125.725 36.488 124.413 37.048 123.101 37.336C121.821 37.624 120.637 37.768 119.549 37.768ZM115.037 21.016H123.869C123.837 19.672 123.645 18.616 123.293 17.848C122.973 17.048 122.525 16.472 121.949 16.12C121.373 15.768 120.701 15.592 119.933 15.592C118.525 15.592 117.421 16.104 116.621 17.128C115.821 18.12 115.293 19.416 115.037 21.016ZM151.41 33.88C152.306 33.88 152.946 33.704 153.33 33.352C153.714 33 153.954 32.504 154.05 31.864C154.178 31.192 154.242 30.44 154.242 29.608V21.544C154.242 20.968 154.258 20.328 154.29 19.624C154.322 18.888 154.37 18.168 154.434 17.464C153.922 17.496 153.314 17.528 152.61 17.56C151.938 17.56 151.426 17.576 151.074 17.608V13.96H152.994C154.242 13.96 155.378 13.8 156.402 13.48C157.458 13.16 158.146 12.84 158.466 12.52H160.818C160.882 12.84 160.93 13.448 160.962 14.344C160.994 15.208 161.01 15.976 161.01 16.648C161.874 15.592 162.69 14.744 163.458 14.104C164.226 13.464 164.978 13 165.714 12.712C166.482 12.392 167.25 12.232 168.018 12.232C169.138 12.232 170.114 12.552 170.946 13.192C171.778 13.8 172.194 14.808 172.194 16.216C172.194 16.696 172.082 17.208 171.858 17.752C171.634 18.264 171.282 18.696 170.802 19.048C170.322 19.4 169.666 19.576 168.834 19.576C168.194 19.576 167.538 19.384 166.866 19C166.194 18.616 165.81 17.88 165.714 16.792C165.074 16.792 164.434 17.064 163.794 17.608C163.154 18.12 162.578 18.744 162.066 19.48C161.586 20.184 161.25 20.84 161.058 21.448V29.272C161.058 29.72 161.042 30.36 161.01 31.192C160.978 31.992 160.93 32.76 160.866 33.496C161.378 33.432 161.938 33.4 162.546 33.4C163.186 33.368 163.666 33.352 163.986 33.352V37H151.41V33.88ZM187.874 37.768C185.538 37.768 183.474 37.256 181.682 36.232C179.89 35.176 178.498 33.704 177.506 31.816C176.514 29.896 176.018 27.64 176.018 25.048C176.018 22.808 176.514 20.712 177.506 18.76C178.498 16.808 179.89 15.24 181.682 14.056C183.506 12.84 185.618 12.232 188.018 12.232C189.362 12.232 190.674 12.424 191.954 12.808C193.234 13.16 194.386 13.784 195.41 14.68C196.466 15.576 197.298 16.792 197.906 18.328C198.546 19.864 198.85 21.784 198.818 24.088L183.074 24.376C183.074 26.104 183.282 27.656 183.698 29.032C184.146 30.408 184.866 31.496 185.858 32.296C186.85 33.096 188.178 33.496 189.842 33.496C190.482 33.496 191.202 33.384 192.002 33.16C192.834 32.936 193.666 32.568 194.498 32.056C195.362 31.512 196.162 30.792 196.898 29.896L199.058 31.912C197.906 33.544 196.674 34.792 195.362 35.656C194.05 36.488 192.738 37.048 191.426 37.336C190.146 37.624 188.962 37.768 187.874 37.768ZM183.362 21.016H192.194C192.162 19.672 191.97 18.616 191.618 17.848C191.298 17.048 190.85 16.472 190.274 16.12C189.698 15.768 189.026 15.592 188.258 15.592C186.85 15.592 185.746 16.104 184.946 17.128C184.146 18.12 183.618 19.416 183.362 21.016ZM215.766 37.768C214.39 37.768 213.046 37.592 211.734 37.24C210.422 36.888 209.398 36.44 208.662 35.896L208.758 37.336H205.11L204.918 29.08H208.038C208.134 30.04 208.518 30.92 209.19 31.72C209.862 32.52 210.742 33.16 211.83 33.64C212.918 34.088 214.134 34.312 215.478 34.312C216.022 34.312 216.534 34.232 217.014 34.072C217.526 33.912 217.942 33.656 218.262 33.304C218.614 32.92 218.79 32.456 218.79 31.912C218.79 31.304 218.566 30.808 218.118 30.424C217.702 30.04 217.078 29.672 216.246 29.32C215.446 28.968 214.438 28.568 213.222 28.12C212.23 27.736 211.222 27.336 210.198 26.92C209.206 26.504 208.278 26.008 207.414 25.432C206.582 24.824 205.91 24.088 205.398 23.224C204.886 22.328 204.63 21.24 204.63 19.96C204.63 19.032 204.806 18.12 205.158 17.224C205.51 16.296 206.054 15.464 206.79 14.728C207.526 13.96 208.454 13.352 209.574 12.904C210.726 12.456 212.086 12.232 213.654 12.232C214.518 12.232 215.494 12.376 216.582 12.664C217.702 12.92 218.646 13.32 219.414 13.864V12.472H223.062V20.968H219.942C219.75 19.848 219.35 18.888 218.742 18.088C218.166 17.288 217.414 16.68 216.486 16.264C215.558 15.816 214.518 15.592 213.366 15.592C212.566 15.592 211.83 15.784 211.158 16.168C210.518 16.552 210.198 17.208 210.198 18.136C210.198 18.872 210.454 19.464 210.966 19.912C211.478 20.328 212.182 20.68 213.078 20.968C213.974 21.256 214.966 21.592 216.054 21.976C217.686 22.52 219.126 23.16 220.374 23.896C221.654 24.632 222.662 25.528 223.398 26.584C224.134 27.608 224.502 28.872 224.502 30.376C224.502 32.04 224.086 33.416 223.254 34.504C222.422 35.592 221.334 36.408 219.99 36.952C218.678 37.496 217.27 37.768 215.766 37.768ZM241.799 37.768C239.463 37.768 237.399 37.256 235.607 36.232C233.815 35.176 232.423 33.704 231.431 31.816C230.439 29.896 229.943 27.64 229.943 25.048C229.943 22.808 230.439 20.712 231.431 18.76C232.423 16.808 233.815 15.24 235.607 14.056C237.431 12.84 239.543 12.232 241.943 12.232C243.287 12.232 244.599 12.424 245.879 12.808C247.159 13.16 248.311 13.784 249.335 14.68C250.391 15.576 251.223 16.792 251.831 18.328C252.471 19.864 252.775 21.784 252.743 24.088L236.999 24.376C236.999 26.104 237.207 27.656 237.623 29.032C238.071 30.408 238.791 31.496 239.783 32.296C240.775 33.096 242.103 33.496 243.767 33.496C244.407 33.496 245.127 33.384 245.927 33.16C246.759 32.936 247.591 32.568 248.423 32.056C249.287 31.512 250.087 30.792 250.823 29.896L252.983 31.912C251.831 33.544 250.599 34.792 249.287 35.656C247.975 36.488 246.663 37.048 245.351 37.336C244.071 37.624 242.887 37.768 241.799 37.768ZM237.287 21.016H246.119C246.087 19.672 245.895 18.616 245.543 17.848C245.223 17.048 244.775 16.472 244.199 16.12C243.623 15.768 242.951 15.592 242.183 15.592C240.775 15.592 239.671 16.104 238.871 17.128C238.071 18.12 237.543 19.416 237.287 21.016ZM258.651 33.88C259.547 33.88 260.187 33.704 260.571 33.352C260.955 33 261.195 32.504 261.291 31.864C261.419 31.192 261.483 30.44 261.483 29.608V21.544C261.483 20.968 261.499 20.328 261.531 19.624C261.563 18.888 261.611 18.168 261.675 17.464C261.163 17.496 260.555 17.528 259.851 17.56C259.179 17.56 258.667 17.576 258.315 17.608V13.96H260.235C261.483 13.96 262.619 13.8 263.643 13.48C264.699 13.16 265.387 12.84 265.707 12.52H268.059C268.123 12.84 268.171 13.448 268.203 14.344C268.235 15.208 268.251 15.976 268.251 16.648C269.115 15.592 269.931 14.744 270.699 14.104C271.467 13.464 272.219 13 272.955 12.712C273.723 12.392 274.491 12.232 275.259 12.232C276.379 12.232 277.355 12.552 278.187 13.192C279.019 13.8 279.435 14.808 279.435 16.216C279.435 16.696 279.323 17.208 279.099 17.752C278.875 18.264 278.523 18.696 278.043 19.048C277.563 19.4 276.907 19.576 276.075 19.576C275.435 19.576 274.779 19.384 274.107 19C273.435 18.616 273.051 17.88 272.955 16.792C272.315 16.792 271.675 17.064 271.035 17.608C270.395 18.12 269.819 18.744 269.307 19.48C268.827 20.184 268.491 20.84 268.299 21.448V29.272C268.299 29.72 268.283 30.36 268.251 31.192C268.219 31.992 268.171 32.76 268.107 33.496C268.619 33.432 269.179 33.4 269.787 33.4C270.427 33.368 270.907 33.352 271.227 33.352V37H258.651V33.88ZM293.557 37.144L285.973 20.488C285.621 19.688 285.365 19.08 285.205 18.664C285.077 18.248 284.981 17.896 284.917 17.608C284.885 17.288 284.821 16.936 284.725 16.552L282.949 16.648V13H294.181V16.072C293.509 16.104 293.061 16.296 292.837 16.648C292.613 17 292.533 17.464 292.597 18.04C292.661 18.584 292.805 19.176 293.029 19.816L295.525 25.96C295.781 26.568 296.037 27.192 296.293 27.832C296.549 28.472 296.805 29.112 297.061 29.752H297.109C297.365 29.08 297.605 28.408 297.829 27.736C298.085 27.064 298.325 26.392 298.549 25.72L300.613 19.864C300.901 19.064 301.157 18.424 301.381 17.944C301.637 17.464 301.909 16.968 302.197 16.456L299.221 16.648V13H308.341V16.072C307.605 16.2 306.949 16.616 306.373 17.32C305.797 17.992 305.301 18.76 304.885 19.624C304.469 20.456 304.133 21.192 303.877 21.832L297.733 37.144H293.557ZM326.014 37C325.95 36.552 325.902 36.184 325.87 35.896C325.87 35.576 325.854 35.208 325.822 34.792C324.734 35.88 323.582 36.648 322.366 37.096C321.15 37.544 319.918 37.768 318.67 37.768C316.622 37.768 315.022 37.16 313.87 35.944C312.718 34.728 312.142 33.208 312.142 31.384C312.142 29.848 312.526 28.536 313.294 27.448C314.094 26.36 315.134 25.48 316.414 24.808C317.726 24.104 319.166 23.576 320.734 23.224C322.334 22.84 323.934 22.616 325.534 22.552V20.056C325.534 19.224 325.422 18.472 325.198 17.8C325.006 17.128 324.654 16.6 324.142 16.216C323.662 15.832 322.974 15.656 322.078 15.688C321.47 15.72 320.878 15.848 320.302 16.072C319.726 16.296 319.23 16.616 318.814 17.032C319.07 17.32 319.23 17.64 319.294 17.992C319.358 18.312 319.39 18.6 319.39 18.856C319.39 19.496 319.134 20.168 318.622 20.872C318.11 21.544 317.294 21.864 316.174 21.832C315.214 21.8 314.478 21.464 313.966 20.824C313.454 20.184 313.198 19.432 313.198 18.568C313.198 17.288 313.646 16.184 314.542 15.256C315.47 14.296 316.702 13.56 318.238 13.048C319.774 12.504 321.47 12.232 323.326 12.232C326.142 12.232 328.318 12.968 329.854 14.44C331.422 15.88 332.206 18.2 332.206 21.4C332.206 22.488 332.206 23.416 332.206 24.184C332.206 24.952 332.19 25.72 332.158 26.488C332.158 27.256 332.158 28.184 332.158 29.272C332.158 29.72 332.142 30.36 332.11 31.192C332.078 31.992 332.03 32.76 331.966 33.496C332.51 33.432 333.086 33.4 333.694 33.4C334.302 33.368 334.766 33.352 335.086 33.352V37H326.014ZM325.486 25.96C324.59 26.056 323.742 26.216 322.942 26.44C322.142 26.664 321.438 26.968 320.83 27.352C320.254 27.736 319.79 28.2 319.438 28.744C319.118 29.288 318.958 29.896 318.958 30.568C318.99 31.464 319.278 32.104 319.822 32.488C320.366 32.872 320.99 33.064 321.694 33.064C322.43 33.064 323.118 32.904 323.758 32.584C324.398 32.264 324.974 31.848 325.486 31.336C325.486 31.016 325.486 30.712 325.486 30.424C325.486 30.104 325.486 29.784 325.486 29.464C325.486 28.888 325.486 28.312 325.486 27.736C325.486 27.128 325.486 26.536 325.486 25.96ZM349.558 37.768C348.598 37.768 347.67 37.656 346.774 37.432C345.91 37.208 345.11 36.792 344.374 36.184C343.67 35.544 343.11 34.616 342.694 33.4C342.278 32.184 342.07 30.568 342.07 28.552L342.166 16.984H338.902V13C339.894 12.968 340.854 12.632 341.782 11.992C342.71 11.352 343.494 10.52 344.134 9.496C344.806 8.472 345.254 7.4 345.478 6.28H349.03L348.982 13H355.078V16.696L348.982 16.84L348.934 28.648C348.934 29.384 348.998 30.12 349.126 30.856C349.286 31.56 349.574 32.152 349.99 32.632C350.406 33.08 351.014 33.304 351.814 33.304C352.262 33.304 352.87 33.144 353.638 32.824C354.438 32.504 355.286 31.704 356.182 30.424L358.486 32.584C357.622 33.864 356.726 34.856 355.798 35.56C354.87 36.264 353.974 36.776 353.11 37.096C352.278 37.416 351.542 37.608 350.902 37.672C350.262 37.736 349.814 37.768 349.558 37.768ZM362.282 33.88C363.178 33.88 363.818 33.704 364.202 33.352C364.586 33 364.826 32.504 364.922 31.864C365.05 31.192 365.114 30.44 365.114 29.608V21.64C365.114 21.064 365.13 20.408 365.162 19.672C365.194 18.904 365.242 18.168 365.306 17.464C364.794 17.496 364.186 17.528 363.482 17.56C362.81 17.56 362.298 17.576 361.946 17.608V13.96C363.418 13.96 364.666 13.88 365.69 13.72C366.714 13.56 367.514 13.368 368.09 13.144C368.698 12.92 369.114 12.712 369.338 12.52H371.93V29.272C371.93 29.72 371.914 30.36 371.882 31.192C371.85 31.992 371.802 32.76 371.738 33.496C372.25 33.432 372.81 33.4 373.418 33.4C374.058 33.368 374.538 33.352 374.858 33.352V37H362.282V33.88ZM368.282 8.728C367.194 8.728 366.298 8.344 365.594 7.576C364.89 6.808 364.538 5.88 364.538 4.792C364.538 3.704 364.906 2.776 365.642 2.008C366.378 1.24 367.242 0.855999 368.234 0.855999C369.258 0.855999 370.106 1.24 370.778 2.008C371.482 2.776 371.834 3.704 371.834 4.792C371.834 5.88 371.514 6.808 370.874 7.576C370.234 8.344 369.37 8.728 368.282 8.728ZM392.145 37.768C389.841 37.768 387.761 37.272 385.905 36.28C384.049 35.288 382.577 33.88 381.489 32.056C380.433 30.2 379.905 28.024 379.905 25.528C379.905 22.872 380.449 20.552 381.537 18.568C382.657 16.552 384.129 15 385.953 13.912C387.809 12.792 389.825 12.232 392.001 12.232C394.305 12.232 396.369 12.728 398.193 13.72C400.017 14.712 401.457 16.136 402.513 17.992C403.569 19.816 404.097 22.008 404.097 24.568C404.097 27.256 403.585 29.592 402.561 31.576C401.537 33.56 400.129 35.096 398.337 36.184C396.545 37.24 394.481 37.768 392.145 37.768ZM392.337 34.36C393.617 34.328 394.577 33.88 395.217 33.016C395.889 32.152 396.353 31.064 396.609 29.752C396.865 28.44 396.993 27.112 396.993 25.768C396.993 24.584 396.897 23.384 396.705 22.168C396.545 20.952 396.273 19.848 395.889 18.856C395.505 17.864 394.977 17.064 394.305 16.456C393.665 15.848 392.865 15.56 391.905 15.592C390.657 15.624 389.665 16.072 388.929 16.936C388.225 17.8 387.713 18.888 387.393 20.2C387.105 21.48 386.961 22.824 386.961 24.232C386.961 25.864 387.137 27.464 387.489 29.032C387.841 30.6 388.401 31.896 389.169 32.92C389.969 33.912 391.025 34.392 392.337 34.36ZM409.973 37V33.88C410.869 33.88 411.509 33.704 411.893 33.352C412.277 33 412.517 32.504 412.613 31.864C412.741 31.192 412.805 30.44 412.805 29.608V21.544C412.805 20.968 412.821 20.328 412.853 19.624C412.885 18.888 412.933 18.168 412.997 17.464C412.485 17.496 411.877 17.528 411.173 17.56C410.501 17.56 409.989 17.576 409.637 17.608V13.96C411.109 13.96 412.357 13.88 413.381 13.72C414.405 13.56 415.205 13.368 415.781 13.144C416.389 12.92 416.805 12.712 417.029 12.52H419.381C419.445 12.936 419.477 13.24 419.477 13.432C419.477 13.624 419.477 13.816 419.477 14.008C419.509 14.168 419.573 14.472 419.669 14.92C420.309 14.408 421.045 13.96 421.877 13.576C422.709 13.16 423.541 12.84 424.373 12.616C425.205 12.36 425.941 12.232 426.581 12.232C429.525 12.232 431.605 13.08 432.821 14.776C434.069 16.44 434.693 19.128 434.693 22.84V29.272C434.693 29.72 434.677 30.36 434.645 31.192C434.613 31.992 434.565 32.76 434.501 33.496C435.045 33.432 435.621 33.4 436.229 33.4C436.837 33.368 437.301 33.352 437.621 33.352V37H425.045V33.88C425.941 33.88 426.581 33.704 426.965 33.352C427.381 33 427.637 32.504 427.733 31.864C427.861 31.192 427.925 30.44 427.925 29.608L427.877 22.792C427.877 20.712 427.573 19.176 426.965 18.184C426.389 17.16 425.397 16.648 423.989 16.648C423.189 16.648 422.389 16.824 421.589 17.176C420.821 17.528 420.165 17.944 419.621 18.424C419.621 18.872 419.621 19.336 419.621 19.816C419.621 20.264 419.621 20.712 419.621 21.16V29.272C419.621 29.72 419.605 30.36 419.573 31.192C419.541 31.992 419.493 32.76 419.429 33.496C419.941 33.432 420.501 33.4 421.109 33.4C421.749 33.368 422.229 33.352 422.549 33.352V37H409.973Z" fill="#D7B56D"/>
</svg>
