<svg width="48" height="49" viewBox="0 0 48 49" fill="none" xmlns="http://www.w3.org/2000/svg">
<g id="uis:calender">
<path id="Vector" d="M4 38.1895C4 41.5895 6.6 44.1895 10 44.1895H38C41.4 44.1895 44 41.5895 44 38.1895V22.1895H4V38.1895ZM38 8.18945H34V6.18945C34 4.98945 33.2 4.18945 32 4.18945C30.8 4.18945 30 4.98945 30 6.18945V8.18945H18V6.18945C18 4.98945 17.2 4.18945 16 4.18945C14.8 4.18945 14 4.98945 14 6.18945V8.18945H10C6.6 8.18945 4 10.7895 4 14.1895V18.1895H44V14.1895C44 10.7895 41.4 8.18945 38 8.18945Z" fill="#FCFCFC"/>
</g>
</svg>
